# AST/ASF file generated using VICON BodyLanguage
# -----------------------------------------------
:version 1.10
:name VICON
:units
  mass 1.0
  length 0.45
  angle deg
:documentation
   .ast/.asf automatically generated from VICON data using
   VICON BodyBuilder and BodyLanguage model FoxedUp or BRILLIANT.MOD
:root
   order TX TY TZ RX RY RZ
   axis XYZ
   position 0 0 0  
   orientation 0 0 0 
:bonedata
  begin
     id 1 
     name lhipjoint
     direction 0.700308 -0.549349 0.455834 
     length 2.59063 
     axis 0 0 0  XYZ
  end
  begin
     id 2 
     name lfemur
     direction 0.34202 -0.939693 0  
     length 6.31066  
     axis 0 0 20  XYZ
    dof rx ry rz
    limits (-160.0 20.0)
           (-70.0 70.0)
           (-60.0 70.0)
  end
  begin
     id 3 
     name ltibia
     direction 0.34202 -0.939693 0   
     length 7.36093   
     axis 0 0 20   XYZ
    dof rx
    limits (-10.0 170.0)
  end
  begin
     id 4 
     name lfoot
     direction 0.0905332 -0.248738 0.96433   
     length 2.0233   
     axis -90 7.62852e-016 20   XYZ
    dof rx rz
    limits (-45.0 90.0)
           (-70.0 20.0)
  end
  begin
     id 5 
     name ltoes
     direction 1.53573e-011 -4.21855e-011 1   
     length 1.01524   
     axis -90 7.62852e-016 20   XYZ
    dof rx
    limits (-90.0 20.0)
  end
  begin
     id 6 
     name rhipjoint
     direction -0.61416 -0.607328 0.503944   
     length 2.34332  
     axis 0 0 0  XYZ 
  end
  begin
     id 7 
     name rfemur
     direction -0.34202 -0.939693 0   
     length 6.58548   
     axis 0 0 -20   XYZ
    dof rx ry rz
    limits (-160.0 20.0)
           (-70.0 70.0)
           (-70.0 60.0)
  end
  begin
     id 8 
     name rtibia
     direction -0.34202 -0.939693 0   
     length 7.20707   
     axis 0 0 -20   XYZ
    dof rx
    limits (-10.0 170.0)
 end
 begin
     id 9 
     name rfoot
     direction -0.136772 -0.375778 0.916561   
     length 1.92184  
     axis -90 -7.62852e-016 -20   XYZ
    dof rx rz
    limits (-45.0 90.0)
           (-20.0 70.0)
  end
  begin
     id 10 
     name rtoes
     direction -1.53535e-011 -4.21828e-011 1   
     length 0.951089   
     axis -90 -7.62852e-016 -20   XYZ
    dof rx
    limits (-90.0 20.0)
  end
  begin
     id 11 
     name lowerback
     direction -0.0444974 0.988086 -0.147332   
     length 1.9609   
     axis 0 0 0   XYZ
    dof rx ry rz
    limits (-20.0 45.0)
           (-30.0 30.0)
           (-30.0 30.0)
  end
  begin
     id 12 
     name upperback
     direction 0.00613146 0.999513 0.0306081   
     length 1.94944   
     axis 0 0 0   XYZ
    dof rx ry rz
    limits (-20.0 45.0)
           (-30.0 30.0)
           (-30.0 30.0)
  end
  begin
     id 13 
     name thorax
     direction 0.0254621 0.994518 0.101418   
     length 2.0119   
     axis 0 0 0   XYZ
    dof rx ry rz
    limits (-20.0 45.0)
           (-30.0 30.0)
           (-30.0 30.0)
  end
  begin
     id 14 
     name lowerneck
     direction 0.0168698 0.977854 0.208608   
     length 1.6375   
     axis 0 0 0   XYZ
    dof rx ry rz
    limits (-20.0 45.0)
           (-30.0 30.0)
           (-30.0 30.0)
  end
  begin
     id 15 
     name upperneck
     direction -0.0283988 0.989338 -0.142843   
     length 1.6851   
     axis 0 0 0   XYZ
    dof rx ry rz
    limits (-20.0 45.0)
           (-30.0 30.0)
           (-30.0 30.0)
  end
  begin
     id 16
     name head
     direction -0.0129422 0.99741 -0.0707489  
     length 1.69029  
     axis 0 0 0   XYZ
    dof rx ry rz
    limits (-20.0 45.0)
           (-30.0 30.0)
           (-30.0 30.0)
  end
  begin
     id 17 
     name lclavicle
     direction 0.820295 0.564628 -0.0911715  
     length 3.16484  
     axis 0 0 0   XYZ
    dof ry rz
    limits (-20.0 10.0)
           (0.0 20.0)
  end
  begin
     id 18 
     name lhumerus
     direction 1 -4.48969e-011 1.00186e-027   
     length 5.17853   
     axis 180 -30 -90   XYZ
    dof rx ry rz
    limits (-60.0 90.0)
           (-90.0 90.0)
           (-90.0 90.0)
  end
  begin
     id 19
     name lradius
     direction 1 -4.48966e-011 -1.52922e-027   
     length 3.40399   
     axis 180 -30 -90   XYZ
    dof rx
    limits (-10.0 170.0)
  end
  begin
     id 20
     name lwrist
     direction 1 -4.48981e-011 -3.80893e-027   
     length 1.70199   
     axis 1.1049e-015 90 90   XYZ
    dof ry
    limits (-180.0 0.0)
 end
  begin
     id 21 
     name lhand
     direction 1 -4.48957e-011 -7.61786e-027   
     length 0.708964   
     axis 4.86085e-015 90 90   XYZ
    dof rx rz
    limits (-90.0 90.0)
           (-45.0 45.0)
  end
  begin
     id 22 
     name lfingers
     direction 1 -4.48929e-011 -1.52357e-026   
     length 0.571585   
     axis 9.7217e-015 90 90   XYZ
    dof rx
    limits (0.0 90.0)
  end
  begin
     id 23
     name lthumb
     direction 0.707107 -6.34905e-011 0.707107   
     length 0.820685   
     axis -90 45 2.85299e-015   XYZ
    dof rx rz
    limits (-45.0 45.0)
           (-45.0 45.0)
  end
  begin
     id 24 
     name rclavicle
     direction -0.858602 0.463947 -0.218075   
     length 3.35137  
     axis 0 0 0   XYZ 
    dof ry rz
    limits (-10.0 20.0)
           (-20.0 0.0)
  end
  begin
     id 25 
     name rhumerus
     direction -1 -4.48969e-011 -1.98511e-027  
     length 5.42351   
     axis 180 30 90   XYZ
    dof rx ry rz
    limits (-90.0 60.0)
           (-90.0 90.0)
           (-90.0 90.0)
  end
  begin
     id 26 
     name rradius
     direction -1 -4.48961e-011 -2.82624e-027   
     length 3.42066   
     axis 180 30 90   XYZ
    dof rx
    limits (-10.0 170.0)
  end
  begin
     id 27 
     name rwrist
     direction -1 -4.48966e-011 -3.80893e-027   
     length 1.71033   
     axis 1.1049e-015 -90 -90   XYZ
    dof ry
    limits (-180.0 0.0)
  end
  begin
     id 28
     name rhand
     direction -1 -4.48964e-011 -7.61786e-027   
     length 0.743608   
     axis 4.86085e-015 -90 -90   XYZ
    dof rx rz
    limits (-90.0 90.0)
           (-45.0 45.0)
  end
  begin
     id 29
     name rfingers
     direction -1 -4.48961e-011 -1.52357e-026   
     length 0.599516   
     axis 9.7217e-015 -90 -90   XYZ
    dof rx
    limits (0.0 90.0)
  end
  begin
     id 30
     name rthumb
     direction -0.707107 -6.34913e-011 0.707107   
     length 0.860789   
     axis -90 -45 -2.85299e-015   XYZ
    dof rx rz
    limits (-45.0 45.0)
           (-45.0 45.0)
  end
:hierarchy
  begin
    root lhipjoint rhipjoint lowerback
    lhipjoint lfemur
    lfemur ltibia
    ltibia lfoot
    lfoot ltoes
    rhipjoint rfemur
    rfemur rtibia
    rtibia rfoot
    rfoot rtoes
    lowerback upperback
    upperback thorax
    thorax lowerneck lclavicle rclavicle
    lowerneck upperneck
    upperneck head
    lclavicle lhumerus
    lhumerus lradius
    lradius lwrist
    lwrist lhand lthumb
    lhand lfingers
    rclavicle rhumerus
    rhumerus rradius
    rradius rwrist
    rwrist rhand rthumb
    rhand rfingers
  end

#!OML:ASF E:\mmandel\Project 1\Capture day 1\Session 2\Subject.ASF
:FULLY-SPECIFIED
:DEGREES
446
root 4.62469 13.5236 0.385676 404.423 87.2746 385.802
lowerback 18.7958 1.51132 -3.28823
upperback 0.817666 1.43482 0.666182
thorax -9.77224 0.880303 2.21046
lowerneck -20.7004 1.73111 4.31084
upperneck 11.5073 2.08306 -5.73831
head 6.99635 0.665828 -2.33412
rclavicle 2.04748e-014 1.82882e-014
rhumerus 8.14694 3.88815 -77.6061
rradius 62.8096
rwrist -14.9962
rhand -12.2034 23.9873
rfingers 7.12502
rthumb 13.861 -5.53077
lclavicle 2.04748e-014 1.82882e-014
lhumerus 6.2665 -14.1948 73.9965
lradius 55.993
lwrist 35.9666
lhand -14.0661 -26.1787
lfingers 7.12502
lthumb 12.0654 3.45345
rfemur -66.0574 -15.4898 10.9797
rtibia 81.3083
rfoot -31.8382 -5.57401
rtoes -22.3394
lfemur -64.248 21.118 -13.2858
ltibia 77.8781
lfoot -26.8624 -8.25561
ltoes -6.35688
447
root 4.62184 13.5327 0.358052 407.009 87.549 388.444
lowerback 18.9133 1.36022 -3.14925
upperback 0.792449 1.26206 0.669832
thorax -9.8511 0.79377 2.1805
lowerneck -20.5481 1.76151 4.32488
upperneck 11.5477 2.12887 -5.75226
head 6.98746 0.688921 -2.3357
rclavicle -1.78906e-015 -2.66371e-014
rhumerus 8.00862 3.97607 -77.6329
rradius 62.7043
rwrist -15.0647
rhand -11.9022 24.0212
rfingers 7.12502
rthumb 14.1512 -5.47686
lclavicle -1.78906e-015 -2.66371e-014
lhumerus 6.17287 -14.4186 73.9413
lradius 55.8876
lwrist 35.7905
lhand -13.9761 -26.1734
lfingers 7.12502
lthumb 12.1522 3.4537
rfemur -65.7655 -15.7261 10.882
rtibia 81.1035
rfoot -31.8403 -5.29578
rtoes -21.6212
lfemur -64.2979 20.7945 -13.3164
ltibia 77.8848
lfoot -26.8526 -8.24101
ltoes -6.05141
448
root 4.61794 13.5361 0.332069 406.077 87.7142 387.494
lowerback 18.8966 1.29232 -3.05334
upperback 0.803464 1.19633 0.68917
thorax -9.82362 0.758427 2.16506
lowerneck -20.5493 1.73033 4.42771
upperneck 11.5475 2.07707 -5.8655
head 6.98738 0.658366 -2.39602
rclavicle -1.78906e-015 8.74653e-015
rhumerus 7.82947 4.04217 -77.6446
rradius 62.7562
rwrist -15.0288
rhand -11.7289 23.9586
rfingers 7.12502
rthumb 14.3182 -5.5277
lclavicle -1.78906e-015 8.74653e-015
lhumerus 6.1743 -14.711 73.8102
lradius 55.8606
lwrist 35.8595
lhand -13.9775 -26.1574
lfingers 7.12502
lthumb 12.1508 3.4697
rfemur -65.6894 -15.8147 10.9087
rtibia 80.9414
rfoot -31.7503 -5.28576
rtoes -21.6249
lfemur -64.4227 20.6222 -13.2767
ltibia 77.9569
lfoot -26.8463 -8.18534
ltoes -5.97066
449
root 4.61698 13.5354 0.304639 404.664 87.6886 386.052
lowerback 18.8399 1.29758 -3.08915
upperback 0.861039 1.19774 0.672578
thorax -9.72855 0.758859 2.16778
lowerneck -20.7966 1.70287 4.48262
upperneck 11.5736 2.02802 -5.92937
head 7.0351 0.627798 -2.43254
rclavicle -7.95139e-015 -4.37326e-015
rhumerus 7.7776 4.056 -77.6521
rradius 62.6987
rwrist -14.9884
rhand -11.5873 23.9434
rfingers 7.12502
rthumb 14.4547 -5.53317
lclavicle -7.95139e-015 -4.37326e-015
lhumerus 6.14651 -14.9819 73.7066
lradius 55.9556
lwrist 35.9809
lhand -14.014 -26.0684
lfingers 7.12502
lthumb 12.1156 3.56078
rfemur -65.6867 -15.8073 10.8306
rtibia 80.8061
rfoot -31.6204 -5.40582
rtoes -22.0512
lfemur -64.4932 20.5099 -13.3319
ltibia 78.0398
lfoot -26.8322 -8.00961
ltoes -6.09615
450
root 4.6177 13.5376 0.277697 403.485 87.5918 384.872
lowerback 18.8603 1.3198 -3.1517
upperback 0.850657 1.20579 0.606343
thorax -9.75175 0.764048 2.12856
lowerneck -20.6244 1.70183 4.48455
upperneck 11.413 2.0226 -5.91061
head 6.95383 0.630673 -2.42566
rclavicle -4.27387e-015 1.15295e-014
rhumerus 7.76894 4.13192 -77.6769
rradius 62.4139
rwrist -15.0088
rhand -11.4625 24.0341
rfingers 7.12502
rthumb 14.575 -5.43379
lclavicle -4.27387e-015 1.15295e-014
lhumerus 5.97242 -15.2454 73.619
lradius 56.0143
lwrist 35.854
lhand -13.9733 -26.1468
lfingers 7.12502
lthumb 12.1549 3.48013
rfemur -65.6417 -15.7329 10.679
rtibia 80.6665
rfoot -31.5153 -5.43305
rtoes -21.9798
lfemur -64.5101 20.4875 -13.4539
ltibia 78.1171
lfoot -26.913 -7.81915
ltoes -6.28817
451
root 4.61837 13.5489 0.251612 402.689 87.5567 384.099
lowerback 18.8642 1.33455 -3.23791
upperback 0.837865 1.20457 0.591583
thorax -9.76961 0.767253 2.16182
lowerneck -20.2827 1.72318 4.49204
upperneck 11.2437 2.0669 -5.98241
head 6.84635 0.652071 -2.44343
rclavicle 5.76476e-015 1.96797e-014
rhumerus 7.67418 4.31409 -77.5996
rradius 62.205
rwrist -15.0274
rhand -11.5024 24.293
rfingers 7.12502
rthumb 14.5365 -5.17771
lclavicle 5.76476e-015 1.96797e-014
lhumerus 5.89101 -15.5213 73.5672
lradius 55.9408
lwrist 35.5459
lhand -13.9204 -26.2667
lfingers 7.12502
lthumb 12.2058 3.35719
rfemur -65.481 -15.703 10.5677
rtibia 80.4606
rfoot -31.4166 -5.47117
rtoes -22.1472
lfemur -64.4325 20.422 -13.5345
ltibia 78.1269
lfoot -27.0155 -7.73757
ltoes -5.85389
452
root 4.6117 13.5527 0.21931 400.594 87.4641 381.839
lowerback 18.7527 1.37911 -3.27979
upperback 0.782604 1.25394 0.581771
thorax -9.77271 0.79201 2.16263
lowerneck -20.3592 1.76143 4.46183
upperneck 11.4277 2.12518 -5.94602
head 6.92131 0.679386 -2.42123
rclavicle 9.93923e-016 -1.86858e-014
rhumerus 7.37794 4.4197 -77.4932
rradius 62.3046
rwrist -14.9497
rhand -11.595 24.443
rfingers 7.12502
rthumb 14.4472 -5.03415
lclavicle 9.93923e-016 -1.86858e-014
lhumerus 5.88346 -15.8315 73.549
lradius 55.8751
lwrist 35.425
lhand -13.8905 -26.1482
lfingers 7.12502
lthumb 12.2347 3.47393
rfemur -65.6362 -15.6406 10.5141
rtibia 80.2578
rfoot -31.2542 -5.45344
rtoes -22.2307
lfemur -64.6413 20.3751 -13.6637
ltibia 78.1856
lfoot -27.0128 -7.57828
ltoes -5.66108
453
root 4.60693 13.5608 0.190068 398.649 87.4058 379.825
lowerback 18.8034 1.41783 -3.29488
upperback 0.71441 1.29551 0.566035
thorax -9.87949 0.813529 2.14176
lowerneck -20.5357 1.71657 4.42299
upperneck 11.6956 2.07772 -5.93287
head 7.03462 0.651361 -2.41866
rclavicle 8.94531e-016 -9.34288e-015
rhumerus 6.99784 4.44124 -77.4383
rradius 62.482
rwrist -14.8626
rhand -11.6204 24.372
rfingers 7.12502
rthumb 14.4228 -5.10685
lclavicle 8.94531e-016 -9.34288e-015
lhumerus 5.78084 -16.1526 73.5443
lradius 55.836
lwrist 35.4751
lhand -13.8533 -25.9787
lfingers 7.12502
lthumb 12.2706 3.64133
rfemur -65.6459 -15.5519 10.4661
rtibia 80.0395
rfoot -31.1334 -5.54329
rtoes -22.3541
lfemur -64.7166 20.3483 -13.7468
ltibia 78.2045
lfoot -27.0133 -7.45763
ltoes -5.62004
454
root 4.6046 13.5726 0.160551 394.5 87.3656 375.671
lowerback 18.8345 1.44828 -3.23314
upperback 0.707092 1.3504 0.595259
thorax -9.90784 0.837796 2.12317
lowerneck -20.5713 1.67098 4.26952
upperneck 11.7969 2.05416 -5.88262
head 7.07026 0.636381 -2.38077
rclavicle -1.46107e-014 -1.86858e-014
rhumerus 6.89925 4.46306 -77.414
rradius 62.4086
rwrist -14.7745
rhand -11.5219 24.3659
rfingers 7.12502
rthumb 14.5177 -5.10616
lclavicle -1.46107e-014 -1.86858e-014
lhumerus 5.7405 -16.3024 73.5803
lradius 55.7571
lwrist 35.4543
lhand -13.7441 -25.6938
lfingers 7.12502
lthumb 12.3758 3.91992
rfemur -65.5568 -15.4017 10.5123
rtibia 79.7909
rfoot -30.9892 -5.69162
rtoes -22.9075
lfemur -64.7116 20.427 -13.7188
ltibia 78.2235
lfoot -27.0795 -7.41188
ltoes -5.20968
455
root 4.60185 13.581 0.128145 392.588 87.337 373.76
lowerback 18.8592 1.4518 -3.19568
upperback 0.754825 1.36326 0.585288
thorax -9.86821 0.841319 2.08735
lowerneck -20.7746 1.7226 4.20653
upperneck 11.909 2.1273 -5.81143
head 7.14276 0.67125 -2.33932
rclavicle -3.67752e-015 1.0138e-014
rhumerus 6.975 4.49189 -77.3998
rradius 62.2359
rwrist -14.7005
rhand -11.3879 24.3083
rfingers 7.12502
rthumb 14.6468 -5.15444
lclavicle -3.67752e-015 1.0138e-014
lhumerus 5.77369 -16.381 73.5766
lradius 55.7317
lwrist 35.346
lhand -13.5876 -25.4616
lfingers 7.12502
lthumb 12.5268 4.14294
rfemur -65.4549 -15.3853 10.441
rtibia 79.5589
rfoot -30.8366 -5.60642
rtoes -23.0048
lfemur -64.7131 20.3815 -13.7779
ltibia 78.2502
lfoot -27.176 -7.34038
ltoes -4.79698
456
root 4.60088 13.5889 0.0955381 391.899 87.3208 373.062
lowerback 18.8238 1.43981 -3.16788
upperback 0.812809 1.35271 0.544309
thorax -9.78152 0.83271 2.03038
lowerneck -20.961 1.76132 4.34417
upperneck 11.9541 2.1599 -5.94873
head 7.19335 0.677469 -2.40393
rclavicle 8.15017e-015 3.37934e-015
rhumerus 6.98219 4.54623 -77.3617
rradius 62.1605
rwrist -14.7492
rhand -11.4205 24.2117
rfingers 7.12502
rthumb 14.6153 -5.25333
lclavicle 8.15017e-015 3.37934e-015
lhumerus 5.72657 -16.5223 73.5565
lradius 55.7906
lwrist 35.1428
lhand -13.579 -25.478
lfingers 7.12502
lthumb 12.535 4.12599
rfemur -65.3301 -15.4289 10.3213
rtibia 79.3234
rfoot -30.6203 -5.59426
rtoes -23.3368
lfemur -64.7256 20.2514 -13.8858
ltibia 78.2764
lfoot -27.2453 -7.18953
ltoes -4.84325
